<svg viewBox="0 0 95 95" id="svg14789" version="1.1" xmlns="http://www.w3.org/2000/svg" xmlns:svg="http://www.w3.org/2000/svg" xmlns:xlink="http://www.w3.org/1999/xlink">
  <title id="title3076">Little Bee</title>
  
  <defs id="defs14793">
    <linearGradient id="linearGradient15922">
      <stop id="stop15924" offset="0" style="stop-color:#ffffff;stop-opacity:1;"/>
      <stop id="stop15926" offset="1" style="stop-color:#a2ffff;stop-opacity:1;"/>
    </linearGradient>
    <linearGradient id="linearGradient15833">
      <stop id="stop15835" offset="0" style="stop-color:#ffffff;stop-opacity:1;"/>
      <stop id="stop15837" offset="1" style="stop-color:#000000;stop-opacity:0;"/>
    </linearGradient>
    <radialGradient cx="64.800003" cy="43.200001" fx="64.800003" fy="43.200001" gradientUnits="userSpaceOnUse" id="radialGradient15839" r="11.3" xlink:href="#linearGradient15833"/>
    <radialGradient cx="64.800003" cy="43.200001" fx="64.800003" fy="43.200001" gradientUnits="userSpaceOnUse" id="radialGradient15839-5" r="11.3" xlink:href="#linearGradient15833-1"/>
    <linearGradient id="linearGradient15833-1">
      <stop id="stop15835-7" offset="0" style="stop-color:#ffffff;stop-opacity:1;"/>
      <stop id="stop15837-1" offset="1" style="stop-color:#ffffff;stop-opacity:0;"/>
    </linearGradient>
    <radialGradient cx="64.800003" cy="43.200001" fx="64.800003" fy="43.200001" gradientTransform="matrix(0.81137306,-0.09169152,-0.0111388,0.86801694,12.70422,11.643279)" gradientUnits="userSpaceOnUse" id="radialGradient15903" r="11.3" xlink:href="#linearGradient15833-1"/>
    <linearGradient gradientUnits="userSpaceOnUse" id="linearGradient15928" x1="45.1" x2="84.951568" xlink:href="#linearGradient15922" y1="61.154273" y2="61.154273"/>
    <linearGradient id="linearGradient15922-2">
      <stop id="stop15924-7" offset="0" style="stop-color:#ffffff;stop-opacity:1;"/>
      <stop id="stop15926-6" offset="1" style="stop-color:#a2ffff;stop-opacity:1;"/>
    </linearGradient>
    <linearGradient gradientTransform="translate(-45.1,-44.9)" gradientUnits="userSpaceOnUse" id="linearGradient15945" x1="45.099998" x2="84.951569" xlink:href="#linearGradient15922-2" y1="61.154274" y2="61.154274"/>
    <linearGradient gradientUnits="userSpaceOnUse" id="linearGradient15928-2" x1="45.099998" x2="84.951569" xlink:href="#linearGradient15922-3" y1="61.154274" y2="61.154274"/>
    <linearGradient id="linearGradient15922-3">
      <stop id="stop15924-2" offset="0" style="stop-color:#ffffff;stop-opacity:1;"/>
      <stop id="stop15926-2" offset="1" style="stop-color:#a2ffff;stop-opacity:1;"/>
    </linearGradient>
    <linearGradient gradientTransform="translate(-45.1,-44.9)" gradientUnits="userSpaceOnUse" id="linearGradient15945-1" x1="45.099998" x2="84.951569" xlink:href="#linearGradient15922-3" y1="61.154274" y2="61.154274"/>
    <linearGradient gradientUnits="userSpaceOnUse" id="linearGradient15928-8" x1="45.099998" x2="84.951569" xlink:href="#linearGradient15922-5" y1="61.154274" y2="61.154274"/>
    <linearGradient id="linearGradient15922-5">
      <stop id="stop15924-76" offset="0" style="stop-color:#ffffff;stop-opacity:1;"/>
      <stop id="stop15926-1" offset="1" style="stop-color:#a2ffff;stop-opacity:1;"/>
    </linearGradient>
    <linearGradient gradientTransform="translate(-45.1,-44.9)" gradientUnits="userSpaceOnUse" id="linearGradient15945-8" x1="45.099998" x2="84.951569" xlink:href="#linearGradient15922-5" y1="61.154274" y2="61.154274"/>
    <linearGradient gradientUnits="userSpaceOnUse" id="linearGradient16014" x1="45.1" x2="84.951568" xlink:href="#linearGradient15922" y1="61.154273" y2="61.154273"/>
    <linearGradient gradientUnits="userSpaceOnUse" id="linearGradient16016" x1="45.099998" x2="84.951569" xlink:href="#linearGradient15922-3" y1="61.154274" y2="61.154274"/>
    <radialGradient cx="64.800003" cy="43.200001" fx="64.800003" fy="43.200001" gradientUnits="userSpaceOnUse" id="radialGradient16018" r="11.3" xlink:href="#linearGradient15833"/>
    <linearGradient gradientUnits="userSpaceOnUse" id="linearGradient16020" x1="45.099998" x2="84.951569" xlink:href="#linearGradient15922-5" y1="61.154274" y2="61.154274"/>
    <linearGradient gradientUnits="userSpaceOnUse" id="linearGradient16022" x1="45.099998" x2="84.951569" xlink:href="#linearGradient15922-5" y1="61.154274" y2="61.154274"/>
    <linearGradient gradientUnits="userSpaceOnUse" id="linearGradient16024" x1="45.099998" x2="84.951569" xlink:href="#linearGradient15922-5" y1="61.154274" y2="61.154274"/>
    <radialGradient cx="64.800003" cy="43.200001" fx="64.800003" fy="43.200001" gradientTransform="matrix(0.81137306,-0.09169152,-0.0111388,0.86801694,12.70422,11.643279)" gradientUnits="userSpaceOnUse" id="radialGradient16026" r="11.3" xlink:href="#linearGradient15833-1"/>
    <linearGradient gradientUnits="userSpaceOnUse" id="linearGradient16045" x1="45.1" x2="84.951568" xlink:href="#linearGradient15922" y1="61.154273" y2="61.154273"/>
    <linearGradient gradientUnits="userSpaceOnUse" id="linearGradient16047" x1="45.099998" x2="84.951569" xlink:href="#linearGradient15922-3" y1="61.154274" y2="61.154274"/>
    <radialGradient cx="64.800003" cy="43.200001" fx="64.800003" fy="43.200001" gradientUnits="userSpaceOnUse" id="radialGradient16049" r="11.3" xlink:href="#linearGradient15833"/>
    <linearGradient gradientUnits="userSpaceOnUse" id="linearGradient16051" x1="45.099998" x2="84.951569" xlink:href="#linearGradient15922-5" y1="61.154274" y2="61.154274"/>
    <linearGradient gradientUnits="userSpaceOnUse" id="linearGradient16053" x1="45.099998" x2="84.951569" xlink:href="#linearGradient15922-5" y1="61.154274" y2="61.154274"/>
    <linearGradient gradientUnits="userSpaceOnUse" id="linearGradient16055" x1="45.099998" x2="84.951569" xlink:href="#linearGradient15922-5" y1="61.154274" y2="61.154274"/>
    <radialGradient cx="64.800003" cy="43.200001" fx="64.800003" fy="43.200001" gradientTransform="matrix(0.81137306,-0.09169152,-0.0111388,0.86801694,12.70422,11.643279)" gradientUnits="userSpaceOnUse" id="radialGradient16057" r="11.3" xlink:href="#linearGradient15833-1"/>
    <linearGradient gradientUnits="userSpaceOnUse" id="linearGradient3062" x1="45.1" x2="84.951568" xlink:href="#linearGradient15922" y1="61.154273" y2="61.154273"/>
    <linearGradient gradientUnits="userSpaceOnUse" id="linearGradient3064" x1="45.099998" x2="84.951569" xlink:href="#linearGradient15922-3" y1="61.154274" y2="61.154274"/>
    <radialGradient cx="64.800003" cy="43.200001" fx="64.800003" fy="43.200001" gradientUnits="userSpaceOnUse" id="radialGradient3066" r="11.3" xlink:href="#linearGradient15833"/>
    <linearGradient gradientUnits="userSpaceOnUse" id="linearGradient3068" x1="45.099998" x2="84.951569" xlink:href="#linearGradient15922-5" y1="61.154274" y2="61.154274"/>
    <linearGradient gradientUnits="userSpaceOnUse" id="linearGradient3070" x1="45.099998" x2="84.951569" xlink:href="#linearGradient15922-5" y1="61.154274" y2="61.154274"/>
    <linearGradient gradientUnits="userSpaceOnUse" id="linearGradient3072" x1="45.099998" x2="84.951569" xlink:href="#linearGradient15922-5" y1="61.154274" y2="61.154274"/>
    <radialGradient cx="64.800003" cy="43.200001" fx="64.800003" fy="43.200001" gradientTransform="matrix(0.81137306,-0.09169152,-0.0111388,0.86801694,12.70422,11.643279)" gradientUnits="userSpaceOnUse" id="radialGradient3074" r="11.3" xlink:href="#linearGradient15833-1"/>
  </defs>
  
  <g id="layer1">
    <g id="g15999" transform="matrix(-1,0,0,1,94.031777,-1.306585)">
      <path d="m 75.200003,43.200001 c 0,5.743761 -4.656239,10.399999 -10.4,10.399999 -5.743761,0 -10.4,-4.656238 -10.4,-10.399999 0,-5.743761 4.656239,-10.4 10.4,-10.4 5.743761,0 10.4,4.656239 10.4,10.4 z" id="path15590" style="fill:#000000;fill-opacity:1;stroke:#000000;stroke-width:1.79999995;stroke-miterlimit:4;stroke-opacity:1;stroke-dasharray:none" transform="matrix(1.2212389,0,0,1.2212389,-25.936284,-16.557521)"/>
      <path d="M 54.432738,59.558571 C 51.781305,72.461665 39.578777,84.137338 27.177632,85.636916 14.776486,87.136494 6.872782,77.892117 9.524215,64.989022 12.175648,52.085927 24.378177,40.410251 36.779322,38.910673 49.180467,37.411096 57.084171,46.655475 54.432738,59.558571 z" id="path15590-7" style="fill:#ffff00;fill-opacity:1;stroke:#000000;stroke-width:1.79999995;stroke-miterlimit:4;stroke-opacity:1"/>
      <path d="m 46,45.8 c 18.6,1.6 46.132108,11.217481 35.8,26 -10.332108,14.782519 -31,-8.4 -35.8,-26 z" id="path14800" style="fill:url(#linearGradient3062);fill-opacity:1;stroke:#000000;stroke-width:1.79999995;stroke-linecap:butt;stroke-linejoin:miter;stroke-miterlimit:4;stroke-opacity:1;stroke-dasharray:none"/>
      <path d="m 23.84375,44.125 c -2.187597,1.525887 -4.229743,3.310856 -6.0625,5.3125 1.638672,0.12654 3.550033,0.297682 5.71875,0.59375 5.407962,0.738282 11.766434,2.261137 14.78125,4.3125 l 0.125,0.09375 c 2.959669,2.084856 6.865623,7.662621 9.71875,12.6875 0.641332,1.129504 1.209461,2.191838 1.75,3.21875 1.429077,-2.19338 2.608837,-4.523757 3.46875,-6.9375 -2.044599,-6.089496 -4.546895,-12.948722 -9.03125,-16 C 39.787308,44.327187 31.893592,44.080093 25.25,44.125 c -0.814603,0.0055 -0.651868,-0.0039 -1.40625,0 z M 13.5625,55.03125 c -1.121944,1.829548 -2.07759,3.743463 -2.8125,5.71875 1.17956,0.115227 2.443435,0.254865 3.78125,0.4375 5.66181,0.772937 12.31242,2.352347 15.46875,4.5 l 0.15625,0.09375 c 3.098596,2.182718 7.169197,8.020504 10.15625,13.28125 0.173124,0.304904 0.301897,0.574929 0.46875,0.875 1.816943,-1.330402 3.530558,-2.834625 5.09375,-4.5 -2.155278,-6.434038 -4.808923,-13.765536 -9.5625,-17 -4.737603,-3.223593 -12.98206,-3.453265 -19.9375,-3.40625 -1.625936,0.01099 -1.432821,-0.0051 -2.8125,0 z M 9.28125,66.375 c -0.2536259,1.690203 -0.3208763,3.310794 -0.21875,4.84375 4.396398,0.612593 9.496134,1.838829 11.9375,3.5 l 0.09375,0.09375 c 2.424988,1.708214 5.631056,6.257894 7.96875,10.375 0.02442,0.043 0.03824,0.08211 0.0625,0.125 1.615207,-0.332279 3.210486,-0.824636 4.78125,-1.46875 -0.162365,-0.465176 -0.304675,-0.884697 -0.46875,-1.375 -1.692456,-5.057546 -3.756784,-10.859262 -7.5,-13.40625 -3.70769,-2.522812 -10.181612,-2.724294 -15.625,-2.6875 -0.5967768,0.004 -0.4733345,-0.0031 -1.03125,0 z" id="path15630" style="font-size:medium;font-style:normal;font-variant:normal;font-weight:normal;font-stretch:normal;text-indent:0;text-align:start;text-decoration:none;line-height:normal;letter-spacing:normal;word-spacing:normal;text-transform:none;direction:ltr;block-progression:tb;writing-mode:lr-tb;text-anchor:start;baseline-shift:baseline;color:#000000;fill:#000000;fill-opacity:1;stroke:none;stroke-width:5;marker:none;visibility:visible;display:inline;overflow:visible;enable-background:accumulate;font-family:Sans;-inkscape-font-specification:Sans"/>
      <path d="M 45.302445,46.719083 C 57.148832,55.904979 71.524535,74.390904 58.113617,79.856888 44.702691,85.322866 40.868531,60.68053 45.302445,46.719083 z" id="path14800-1" style="color:#000000;fill:url(#linearGradient3064);fill-opacity:1;fill-rule:nonzero;stroke:#000000;stroke-width:1.79999995;stroke-linecap:butt;stroke-linejoin:miter;stroke-miterlimit:4;stroke-opacity:1;stroke-dasharray:none;stroke-dashoffset:0;marker:none;visibility:visible;display:inline;overflow:visible;enable-background:accumulate"/>
      <path d="m 75.200003,43.200001 c 0,5.743761 -4.656239,10.399999 -10.4,10.399999 -5.743761,0 -10.4,-4.656238 -10.4,-10.399999 0,-5.743761 4.656239,-10.4 10.4,-10.4 5.743761,0 10.4,4.656239 10.4,10.4 z" id="path15590-8" style="fill:url(#radialGradient3066);fill-opacity:1;stroke:none" transform="matrix(0.80582553,0,0.55717483,0.86339575,-20.573358,-3.4971915)"/>
      <path d="m 64.7,31.4 c 9.875,-0.2 11.102309,-1.052474 13.15,1.675 2.047691,2.727474 3.149541,7.287054 0.6,7.3 -2.549541,0.01295 -2.404992,-4.507613 -3.143406,-6.362166 C 74.56818,32.158282 69.8,31.7125 64.7,31.4 z" id="path15841" style="fill:#000000;stroke:#000000;stroke-width:1px;stroke-linecap:butt;stroke-linejoin:miter;stroke-opacity:1"/>
      <path d="m 54.138072,24.758791 c 3.35e-4,-9.877024 0.827826,-11.121315 -1.940486,-13.113452 -2.76831,-1.9921359 -7.349233,-3.0015886 -7.310636,-0.452307 0.03859,2.549282 4.555308,2.313379 6.424409,3.014152 1.8691,0.700773 2.41118,5.458967 2.826713,10.551607 z" id="path15841-2" style="fill:#000000;stroke:#000000;stroke-width:1px;stroke-linecap:butt;stroke-linejoin:miter;stroke-opacity:1"/>
      <g id="g15882" style="color:#000000;fill:url(#linearGradient3072);fill-opacity:1;fill-rule:nonzero;stroke:#000000;stroke-width:1.79999995;stroke-linecap:butt;stroke-linejoin:miter;stroke-miterlimit:4;stroke-opacity:1;stroke-dasharray:none;stroke-dashoffset:0;marker:none;visibility:visible;display:inline;overflow:visible;enable-background:accumulate" transform="matrix(0,-1,-1,0,75.685241,75.256024)">
        <path d="m 29.702429,30.082575 c 18.6,1.6 46.132108,11.217481 35.8,26 -10.332108,14.782519 -31,-8.4 -35.8,-26 z" id="path14800-4" style="color:#000000;fill:url(#linearGradient3068);fill-opacity:1;fill-rule:nonzero;stroke:#000000;stroke-width:1.79999995;stroke-linecap:butt;stroke-linejoin:miter;stroke-miterlimit:4;stroke-opacity:1;stroke-dasharray:none;stroke-dashoffset:0;marker:none;visibility:visible;display:inline;overflow:visible;enable-background:accumulate"/>
        <path d="M 29.004874,31.001658 C 40.851261,40.187554 55.226964,58.673479 41.816046,64.139463 28.40512,69.605441 24.57096,44.963105 29.004874,31.001658 z" id="path14800-1-5" style="color:#000000;fill:url(#linearGradient3070);fill-opacity:1;fill-rule:nonzero;stroke:#000000;stroke-width:1.79999995;stroke-linecap:butt;stroke-linejoin:miter;stroke-miterlimit:4;stroke-opacity:1;stroke-dasharray:none;stroke-dashoffset:0;marker:none;visibility:visible;display:inline;overflow:visible;enable-background:accumulate"/>
      </g>
      <path d="m 13.912349,81.551204 -5.3280117,9.45994 8.1551207,-7.393976 z" id="path15886" style="fill:#000000;stroke:#000000;stroke-width:0;stroke-linecap:butt;stroke-linejoin:miter;stroke-miterlimit:4;stroke-opacity:1;stroke-dasharray:none"/>
      <path d="m 75.200003,43.200001 c 0,5.743761 -4.656239,10.399999 -10.4,10.399999 -5.743761,0 -10.4,-4.656238 -10.4,-10.399999 0,-5.743761 4.656239,-10.4 10.4,-10.4 5.743761,0 10.4,4.656239 10.4,10.4 z" id="path15590-8-1" style="fill:url(#radialGradient3074);fill-opacity:1;stroke:none" transform="matrix(0,0.96103463,-1.06975,0.66449161,77.975249,-29.705767)"/>
    </g>
  </g>
</svg>