<svg viewBox="0 0 496.1861 834.39691" id="svg2" version="1.1" xmlns="http://www.w3.org/2000/svg" xmlns:svg="http://www.w3.org/2000/svg">
  <defs id="defs4">
    
    
    
    
    
    
  </defs>
  
  
  <g id="layer1" transform="translate(-114.74185,-123.21113)">
    <g id="g3718">
      <path d="m 318.20285,389.59479 c -9.65595,20.46686 26.51699,4.38775 55.08428,105.2826 28.56729,100.89484 11.55519,242.11929 -19.24161,309.50184 -146.13251,319.73397 70.26319,73.7497 69.27591,-145.99529 -0.29676,-66.05075 -20.72759,-172.01938 -49.18202,-213.62434 -28.45443,-41.60497 -49.84545,-68.07561 -55.93656,-55.16481 z" id="path3619" style="fill:#4e8400;fill-opacity:1;stroke:none"/>
      <g id="g3711" transform="matrix(0.79238826,-0.3486051,0.3486051,0.79238826,-1107.1875,655.35754)">
        <path d="m 1331.4286,583.79077 c 0,119.92469 -102.3349,217.14285 -228.5714,217.14285 -126.23654,0 -228.57145,-97.21816 -228.57145,-217.14285 0,-119.92468 102.33491,-217.14285 228.57145,-217.14285 126.2365,0 228.5714,97.21817 228.5714,217.14285 z" id="path3631-4-4" style="fill:#dc990a;fill-opacity:1;stroke:none" transform="matrix(0.59250843,-0.23233603,0.24456424,0.62369308,957.20206,409.91795)"/>
        <path d="m 1331.4286,583.79077 c 0,119.92469 -102.3349,217.14285 -228.5714,217.14285 -126.23654,0 -228.57145,-97.21816 -228.57145,-217.14285 0,-119.92468 102.33491,-217.14285 228.57145,-217.14285 126.2365,0 228.5714,97.21817 228.5714,217.14285 z" id="path3631-9" style="fill:#dc990a;fill-opacity:1;stroke:none" transform="matrix(0.59250843,-0.23233603,0.24456424,0.62369308,782.63063,369.06081)"/>
        <path d="m 1331.4286,583.79077 c 0,119.92469 -102.3349,217.14285 -228.5714,217.14285 -126.23654,0 -228.57145,-97.21816 -228.57145,-217.14285 0,-119.92468 102.33491,-217.14285 228.57145,-217.14285 126.2365,0 228.5714,97.21817 228.5714,217.14285 z" id="path3631" style="fill:#dc990a;fill-opacity:1;stroke:none" transform="matrix(0.59250843,-0.23233603,0.24456424,0.62369308,1046.9163,269.91795)"/>
        <path d="m 1331.4286,583.79077 c 0,119.92469 -102.3349,217.14285 -228.5714,217.14285 -126.23654,0 -228.57145,-97.21816 -228.57145,-217.14285 0,-119.92468 102.33491,-217.14285 228.57145,-217.14285 126.2365,0 228.5714,97.21817 228.5714,217.14285 z" id="path3631-1" style="fill:#dc990a;fill-opacity:1;stroke:none" transform="matrix(0.59250843,-0.23233603,0.24456424,0.62369308,767.48777,204.20367)"/>
        <path d="m 1331.4286,583.79077 c 0,119.92469 -102.3349,217.14285 -228.5714,217.14285 -126.23654,0 -228.57145,-97.21816 -228.57145,-217.14285 0,-119.92468 102.33491,-217.14285 228.57145,-217.14285 126.2365,0 228.5714,97.21817 228.5714,217.14285 z" id="path3631-4" style="fill:#dc990a;fill-opacity:1;stroke:none" transform="matrix(0.59250843,-0.23233603,0.24456424,0.62369308,925.77349,137.06081)"/>
      </g>
      <path d="m 512.32567,512.21387 c -105.65965,91.89038 -73.20172,-68.32846 -129.14293,-58.76189 -55.9412,9.56655 31.57433,169.07848 -102.27725,98.33728 -121.57127,-64.25102 42.36365,-90.73363 15.97854,-140.98065 -26.38513,-50.24702 -145.89023,87.91585 -125.12973,-66.88355 19.11742,-142.54783 99.3839,12.25199 139.0182,-28.36894 39.6343,-40.62092 -145.29759,-106.26404 24.94283,-139.67359 133.38918,-26.17752 19.05897,98.30578 69.93944,123.44768 50.88047,25.1419 59.92611,-148.28296 140.54524,-19.43948 64.43268,102.9747 -87.6048,48.50433 -95.79325,104.6638 -8.18844,56.15948 155.72367,33.18308 61.91891,127.65934 z" id="path2838" style="fill:#ffe700;fill-opacity:1;stroke:#ffffc8;stroke-width:6;stroke-miterlimit:4;stroke-opacity:1;stroke-dasharray:none;stroke-dashoffset:0"/>
      <path d="m 472.7514,210.90511 c 0,25.10513 -21.25625,45.45686 -47.47717,45.45686 -26.22092,0 -47.47717,-20.35173 -47.47717,-45.45686 0,-25.10514 21.25625,-45.45687 47.47717,-45.45687 26.22092,0 47.47717,20.35173 47.47717,45.45687 z" id="path3613" style="fill:#ffd399;fill-opacity:1;stroke:#ffffff;stroke-width:6;stroke-miterlimit:4;stroke-opacity:1;stroke-dasharray:none;stroke-dashoffset:0" transform="matrix(0.92314387,0.38445467,-0.38445467,0.92314387,59.399964,11.148473)"/>
    </g>
  </g>
</svg>