<svg overflow="visible" viewBox="0 0 283.171 416.147" xmlns="http://www.w3.org/2000/svg" xmlns:xlink="http://www.w3.org/1999/xlink">
  <g>
    <path clip-rule="evenodd" d="       M149.28,92.15c-13.178-0.277-28.551,9.703-36.756,16.449c-8.554,6.284-6.473,10.164-12.022,22.639       c-5.317,12.753-11.558,35.577-20.574,52.025c-9.478,15.987-24.388,29.478-35.37,44.076       C33,241.664,19.36,254.418,12.079,269.112c-7.745,14.323-13.986,27.257-12.021,45.275c1.617,17.929,9.248,45.558,23.349,62.192       c14.334,16.357,41.497,29.753,61.492,35.574c19.533,5.083,41.033-3.971,55.135-3.324c13.407,0.737,13.986,7.574,26.24,7.3       c12.365-0.557,28.779-1.389,46.579-10.719c17.107-9.796,46.005-27.263,57.327-46.388c11.1-19.685,17.11-44.636,9.945-68.384       c-7.862-23.749-42.074-51.653-54.441-72.354c-12.598-20.976-13.871-33.913-19.881-52.025       c-6.243-18.296-7.745-43.615-16.993-55.998C178.638,97.788,162.34,92.335,149.28,92.15z" fill-rule="evenodd" stroke="#000000" stroke-miterlimit="10" stroke-width="0.036"/>
    <path clip-rule="evenodd" d="       M150.666,97.326c-11.325-1.294-23.346,5.452-31.091,12.383c-7.859,6.469-9.132,15.062-14.91,28.277       c-5.895,13.49-11.675,35.39-20.46,51.47c-9.825,15.616-24.157,28.459-35.368,42.417       c-11.328,13.581-24.389,25.593-31.093,39.546c-6.821,13.86-12.368,26.339-9.941,43.524c2.08,17.001,9.479,42.601,22.655,58.217       c13.06,15.245,37.218,28.186,55.598,33.45c18.377,4.807,39.069-3.881,52.707-3.235c12.6,0.742,13.523,7.119,25.081,7.025       c11.905-0.737,27.394-1.199,44.618-10.259c16.642-9.426,43.692-25.875,54.786-44.353c10.752-18.851,16.297-42.693,9.479-65.425       c-7.397-22.641-40.222-49.348-52.127-69.12c-11.905-19.961-13.18-32.62-18.958-49.715c-6.01-17.373-7.859-41.307-16.182-53.595       C176.444,105.458,161.88,98.711,150.666,97.326z" fill="#E8E800" fill-rule="evenodd" stroke="#000000" stroke-miterlimit="10" stroke-width="0.036"/>
    <path clip-rule="evenodd" d="M103.276,395.243       c2.891-0.089-7.397-3.694-9.939-7.945c-2.776-4.528-0.695-12.288-4.856-17.558c-4.277-5.448-15.719-8.503-20.573-14.137       c-5.202-6.102-8.9-21.067-9.825-20.329c-1.388,0.922-0.463,19.407,2.773,25.503c3.122,5.544,13.755,4.064,16.298,8.412       c1.964,4.247-7.166,12.935-2.889,17.558C78.542,391.363,99.81,394.692,103.276,395.243z" fill="#8D5C25" fill-rule="evenodd"/>
    <path clip-rule="evenodd" d="M217.823,294.059       c-1.384-4.713-7.052-13.768-4.971-16.45c1.964-2.862,11.212-1.013,16.992-0.551c5.318-0.097,12.366-2.402,16.297,1.663       c3.814,3.882,9.131,18.391,7.05,22.086c-2.427,3.419-15.719-1.941-21.151-1.107c-6.126,0.551-10.404,5.818-12.832,5.077       C216.549,303.393,218.749,298.866,217.823,294.059z" fill="#8D5C25" fill-rule="evenodd"/>
    <path clip-rule="evenodd" d="       M140.724,97.326c0.232,4.713,1.851,7.393,3.585,8.408c1.849,0.833,6.356,3.235,7.743-2.771       c1.157-6.561,3.353-22.085-1.387-34.468c-4.853-12.568-13.639-27.629-29.011-39.088C105.588,17.764,83.973,8.338,55.886,0.021       l-5.665,11.365c-2.311,0.647,0.925,2.68,9.247,5.083c8.554,2.402,28.896,4.621,41.033,10.164       c11.673,5.453,22.193,14.601,28.897,23.195c6.127,8.408,7.281,18.852,9.246,27.074       C140.495,84.943,141.189,91.412,140.724,97.326z" fill-rule="evenodd" stroke="#000000" stroke-miterlimit="10" stroke-width="0.036"/>
    <path clip-rule="evenodd" d="       M139.34,63.32c-0.579,2.402,4.507,25.32,6.357,27.723c1.386,2.125,3.813-10.257,2.886-14.693       C147.2,71.637,139.8,60.64,139.34,63.32z" fill="#E5953C" fill-rule="evenodd" stroke="#000000" stroke-miterlimit="10" stroke-width="0.036"/>
    <path clip-rule="evenodd" d="       M88.48,15.916L55.886,3.995l-1.388,6.838c7.399,2.126,14.564,4.528,21.961,6.192c7.398,1.57,19.304,4.62,21.846,4.527       C100.156,21.275,97.035,19.519,88.48,15.916z" fill="#E5953C" fill-rule="evenodd" stroke="#000000" stroke-miterlimit="10" stroke-width="0.036"/>
  </g>
</svg>