<svg overflow="visible" viewBox="0 0 372.79 366.477" xmlns="http://www.w3.org/2000/svg" xmlns:xlink="http://www.w3.org/1999/xlink">
  <g>
    <path clip-rule="evenodd" d="       M120.171,49.875c-24.714,3.593-43.784,9.579-60.546,20.953c-17.36,11.288-31.043,26.768-41.049,47.376       C8.4,139.157-1.179,166.608,0.018,194.317c1.198,27.193,11.204,61.058,25.399,86.458       c13.769,25.229,31.472,48.917,58.067,63.455c26.682,14.198,68.243,25.314,100.569,21.466       c32.07-4.361,66.533-20.781,89.881-45.924c22.748-25.569,41.989-69.783,46.865-104.932       c4.532-35.405,0.427-76.966-18.559-104.931c-19.496-28.307-64.654-51.739-95.184-62.001       C176.101,37.646,145.144,46.112,120.171,49.875z" fill-rule="evenodd" stroke="#000000" stroke-miterlimit="10" stroke-width="0.036"/>
    <path clip-rule="evenodd" d="       M125.474,53.723c-23.688,3.335-43.528,9.579-60.547,21.038c-17.189,11.374-30.958,26.597-40.964,47.292       C13.616,142.92,4.123,170.969,5.406,198.25c1.369,27.023,12.145,59.179,27.366,83.98       c15.137,24.458,36.773,48.489,62.942,61.488c26.083,12.571,62.77,18.472,92.275,14.11       c29.331-4.618,60.631-19.927,82.012-40.963c20.952-21.638,37.627-52.424,43.445-85.434       c5.299-33.183,7.094-80.902-10.778-110.833c-18.299-29.932-67.475-56.101-97.062-67.303       C175.674,42.093,149.078,50.046,125.474,53.723z" fill="#F7A122" fill-rule="evenodd" stroke="#000000" stroke-miterlimit="10" stroke-width="0.036"/>
    <path clip-rule="evenodd" d="       M174.818,46.882c15.991,6.585,32.583,14.024,49.773,23.005c17.019,8.722,36.687,22.491,52.763,29.76       c16.081,6.841,31.044,7.525,42.93,12.657c11.461,5.131,18.644,7.354,26.855,18.557c8.208,11.203,15.562,27.194,22.405,48.318       c1.884-15.82,2.991-31.642,2.991-47.805c-0.17-16.334,1.797-35.576-2.991-48.831c-5.131-13.342-15.566-23.091-26.34-30.274       c-10.945-7.355-20.267-8.21-38.569-13.169c-18.897-5.388-50.369-18.814-72.264-17.532       C210.482,22.937,191.752,31.061,174.818,46.882z" fill-rule="evenodd" stroke="#000000" stroke-miterlimit="10" stroke-width="0.036"/>
    <path clip-rule="evenodd" d="       M185.508,46.882c17.875,5.986,34.462,13.255,50.798,21.465c15.994,8.21,30.958,21.124,45.925,27.879       c15.052,6.415,31.555,7.013,42.932,11.716c11.116,4.447,16.076,6.841,23.43,16.078c7.098,9.407,13.599,21.892,19.5,39.081       c-0.427-17.531-1.03-32.496-1.456-45.924c-0.683-13.512,1.967-24.458-1.968-34.122c-4.272-10.005-12.396-18.044-22.405-24.458       c-10.003-6.585-20.354-8.552-37.627-14.11c-17.873-5.645-46.777-20.183-66.877-19.584       C217.748,25.417,200.559,32.429,185.508,46.882z" fill="#61A228" fill-rule="evenodd" stroke="#000000" stroke-miterlimit="10" stroke-width="0.036"/>
    <path clip-rule="evenodd" d="       M233.398,39.1c9.663,1.453,32.495,5.986,43.445,10.262c10.43,4.02,10.346,10.091,19.496,14.624       c8.982,4.361,23.176,4.19,33.693,11.715c10.263,7.526,29.076,32.07,27.369,32.754c-2.311,0.342-26.34-24.373-39.085-30.274       c-12.74-6.157-25.996-2.564-36.087-6.414c-10.091-4.36-14.281-12.571-24.46-18.044c-10.69-5.558-34.037-11.801-38.055-14.111       C215.525,37.047,223.821,37.303,233.398,39.1z" fill-rule="evenodd" stroke="#000000" stroke-miterlimit="10" stroke-width="0.036"/>
    <path clip-rule="evenodd" d="       M176.272,57.658c-12.656,1.967-25.398,2.993-38.569,3.42c-13.596,0.342-37.456-0.256-40.536-1.453       c-2.907-1.283,14.71-4.619,22.493-6.329c7.525-1.968,14.881-3.507,22.405-4.961c-9.406-20.267-13.94-32.838-14.624-38.996       c-0.769-6.157,8.466,4.362,11.204,2.908c2.48-1.796,1.624-11.802,5.387-12.229c3.762-0.342,14.794,4.19,17.617,10.262       c2.48,5.902-4.447,16.25-1.966,24.459C162.247,42.863,167.465,49.96,176.272,57.658z" fill-rule="evenodd" stroke="#000000" stroke-miterlimit="10" stroke-width="0.036"/>
    <path clip-rule="evenodd" d="       M162.076,53.296c-3.334-3.849-5.558-9.066-6.329-15.651c-0.854-7.012,2.138-18.729,1.027-23.945       c-1.539-5.131-4.79-7.525-9.75-6.842c-2.052,5.217-4.191,8.124-6.414,9.749c-2.308,1.37-4.618,0.771-7.27-1.453       c4.191,7.782,6.843,14.623,9.237,21.465c2.138,6.67,3.164,12.742,3.421,18.558c4.875,0.941,8.296,1.283,11.203,1.025       C159.767,55.947,161.392,54.75,162.076,53.296z" fill="#B0722E" fill-rule="evenodd" stroke="#000000" stroke-miterlimit="10" stroke-width="0.036"/>
    <path clip-rule="evenodd" d="       M187.475,70.828c15.478,2.138,29.248,8.124,41.988,17.617c12.574,9.407,24.289,18.301,33.184,39.509       c8.467,20.953,17.617,56.786,18.558,86.375c0.854,29.759-3.423,59.093-13.172,90.307       c10.093-17.274,16.764-36.858,20.012-60.033c3.253-23.347,3.935-54.305-0.938-78.079c-5.22-24.203-13.256-48.319-29.764-64.482       C240.413,85.964,217.664,75.787,187.475,70.828z" fill-rule="evenodd" stroke="#000000" stroke-miterlimit="10" stroke-width="0.036"/>
    <path clip-rule="evenodd" d="       M15.669,209.967c0.085,20.438,5.986,40.707,18.043,61.487c12.059,20.61,30.617,47.978,53.706,62.001       c23.005,13.685,49.858,20.526,82.526,20.526c-7.014-4.277-15.308-7.697-25.913-10.263c-10.775-2.652-25.569-2.309-37.115-5.902       c-11.545-3.85-19.925-6.071-31.728-17.532c-12.485-11.972-31.213-36.002-40.022-52.251       c-8.552-16.42-8.125-35.234-11.204-44.896C20.628,213.3,17.977,209.025,15.669,209.967z" fill-rule="evenodd" stroke="#000000" stroke-miterlimit="10" stroke-width="0.036"/>
  </g>
</svg>