<svg viewBox="50 0 700 950" xmlns="http://www.w3.org/2000/svg" xmlns:svg="http://www.w3.org/2000/svg">
  <g id="layer1">
    <path d="M 379.23224,438.23766 C 374.28383,498.02909 337.17707,556.13744 284.26064,585.37753 C 234.61826,612.04399 164.25811,592.61267 141.3206,541.57587 C 123.56073,495.786 140.23669,442.37182 172.6577,406.9626 C 197.58047,379.0677 234.46533,367.92199 268.32808,352.65395 C 215.78521,359.32825 160.04926,348.85461 118.9472,316.55196 C 93.80036,298.24079 68.967838,270.7706 70.015194,238.14816 C 72.537142,189.98606 123.33802,150.66146 172.67297,158.26375 C 233.83972,167.09785 280.86946,210.99456 319.23894,255.49809 C 305.53046,243.17106 292.78297,223.59603 287.07377,206.41175 C 269.83501,134.89452 310.37772,54.820639 379.66794,25.267529 C 394.24403,18.265881 412.09763,21.245543 424.777,31.5331 C 458.16547,56.531227 480.67746,96.762743 478.68179,138.0298 C 473.51799,183.00239 450.2441,221.90826 425.43948,259.53229 C 446.3553,222.32946 474.17485,190.53071 517.05894,173.0249 C 571.77307,150.47344 644.45198,150.86596 686.82545,196.75229 C 713.87595,222.88402 708.29009,269.60619 681.88748,294.2084 C 652.21076,321.3842 611.54295,331.27413 573.8331,341.47206 C 541.40518,351.77148 501.44749,342.08509 468.67933,341.71598 C 498.76619,343.18274 537.28023,343.58886 559.98903,359.16394 C 595.06749,383.44125 630.52097,417.98398 624.82919,463.5742 C 617.87119,514.41308 573.30751,570.30441 515.62672,561.16065 C 455.51604,551.09138 406.28972,489.47925 379.23224,438.23766 z" id="path3806" style="fill:#5758f5;fill-opacity:1;stroke:#000000;stroke-width:4.13720798;stroke-miterlimit:4;stroke-dasharray:none;stroke-opacity:1"/>
    <path d="M 408.59431,258.31834 C 463.3225,284.92723 473.66048,368.43041 428.28331,408.52554 C 387.81834,448.71754 311.2852,439.8964 283.76362,389.01431 C 255.26152,345.30416 273.22209,279.37872 321.35493,257.55593 C 347.87664,243.69659 381.18098,244.47355 408.59431,258.31834 z" id="path3800" style="fill:#fdff08;fill-opacity:1;stroke:#000000;stroke-width:3.89824891;stroke-miterlimit:4;stroke-dasharray:none;stroke-opacity:1"/>
    <path d="M 597.44435,630.72409 C 644.1555,828.29746 480.72367,884.29776 359.9435,945.26036 C 389.70577,822.61833 367.58023,670.79051 597.44435,630.72409 z" id="path38" style="fill:#37dc11;fill-opacity:1;stroke:#000000;stroke-width:5.35293436;stroke-miterlimit:4;stroke-dasharray:none;stroke-opacity:1"/>
    <path d="M 44.158636,654.33257 C 40.157439,853.71394 233.15572,884.04415 353.59513,944.83474 C 321.55139,820.17327 242.6233,656.43869 44.158636,654.33257 z" id="path3789" style="fill:#37dc11;fill-opacity:1;stroke:#000000;stroke-width:5.33783054;stroke-miterlimit:4;stroke-dasharray:none;stroke-opacity:1"/>
    <path d="M 357.18933,948.02026 C 308.51149,652.16548 399.61002,648.38124 378.576,436.06131 C 426.89148,578.5953 343.28314,624.37694 357.18933,948.02026 z" id="path32" style="fill:#37dc11;stroke:#000000;stroke-width:2.85142945999999990;stroke-miterlimit:4;stroke-dasharray:none;stroke-opacity:1;fill-opacity:1"/>
  </g>
</svg>