<svg viewBox="0 0 50 50" xmlns="http://www.w3.org/2000/svg" xmlns:svg="http://www.w3.org/2000/svg">
  <g id="layer1">
    <path d="M 31.249391,31.250000 L 11.749880,31.250000 C 11.749880,31.250000 14.796755,31.879275 23.328247,23.691400 C 31.859743,15.502925 31.249391,11.093750 31.249391,11.093750 M 11.749880,31.250000 C 11.749880,31.250000 16.015016,30.620112 23.937380,39.438475 C 31.858522,48.256837 31.249391,51.406250 31.249391,51.406250 L 31.249391,31.250000 M 31.249391,51.406250 C 31.249391,51.406250 30.640261,46.997075 39.171754,38.808587 C 47.703248,30.620112 50.750121,31.250000 50.750121,31.250000 L 31.249391,31.250000 M 50.750121,31.250000 C 50.750121,31.250000 46.483766,31.879887 38.562623,23.061525 C 30.641481,14.243162 31.249391,11.093750 31.249391,11.093750 L 31.249391,31.250000" id="path1733" style="fill:#e61408;fill-rule:nonzero;stroke:none;stroke-miterlimit:4.0000000"/>
  </g>
</svg>