<svg viewBox="0 0 50 50" xmlns="http://www.w3.org/2000/svg" xmlns:svg="http://www.w3.org/2000/svg">
  <g id="layer1">
    <g id="g2003" style="fill-rule:nonzero;stroke:none;stroke-miterlimit:4.0000000" transform="matrix(1.250000,0.000000,0.000000,1.250000,-75.41409,-119.9182)">
      <g id="g2005">
        <path d="M 93.500977,137.46973 C 90.021484,137.47266 88.191406,133.76270 87.231445,130.05371 C 86.270508,126.34180 86.179688,122.62988 86.179688,122.62988 L 84.404297,122.61230 C 84.404297,122.61230 84.071289,137.45996 77.113770,137.46582 L 93.500977,137.46973 L 93.500977,137.46973 z " id="path2007"/>
      </g>
      <path d="M 99.387695,122.62598 C 99.357422,115.38379 88.514648,110.13086 85.331055,104.39941 C 82.148438,110.13086 71.305664,115.38379 71.274902,122.62598 C 71.260742,126.04590 74.421875,128.81641 78.303711,128.81641 C 82.184570,128.81641 85.331055,126.04590 85.331055,122.62598 C 85.331055,126.04590 88.478516,128.81641 92.360352,128.81641 C 96.242188,128.81641 99.387696,126.04590 99.387696,122.62598 L 99.387695,122.62598 z " id="path2009"/>
    </g>
  </g>
</svg>